# xmcd CD database file
# Copyright (C) 1996 Ti Kan
#
# Track frame offsets:
# 	150
# 	14827
# 	28735
# 	40285
# 	52982
# 	68142
# 	81030
# 	97182
# 	112092
# 	123465
#
# Disc length: 1883 seconds
#
# Revision: 1
# Processed by: cddbd v1.4b41PL1 Copyright (c) Steve Scherf et al.
# Submitted via: DiscPlay 3.3.1
#
DISCID=8b07590a
DTITLE=Ricky Lynn Gregg - Ricky Lynn Gregg
DYEAR=1900
DGENRE=
TTITLE0=A Good Habit Is Hard To Break
TTITLE1=If I Had A Cheatin' Heart
TTITLE2=Alright Already
TTITLE3=Bring On The Neon
TTITLE4=No Place Left To Go
TTITLE5=Can You Feel It
TTITLE6=That's What Happens
TTITLE7=The Change (Is Gonna Do Me Good)
TTITLE8=Three Nickels And A Dime
TTITLE9=Cheyenne
EXTD=
EXTT0=
EXTT1=
EXTT2=
EXTT3=
EXTT4=
EXTT5=
EXTT6=
EXTT7=
EXTT8=
EXTT9=
PLAYORDER=
